# xmcd
#
# Track frame offsets: 
#        150
#        22240
#        48372
#        72902
#        96690
#        116532
#        133652
#        151177
#        172400
#        207880
#        226210
#        256895
#
# Disc length: 3816 seconds
#
# Revision: 0
# Processed by: cddbd v1.4PL0 Copyright (c) Steve Scherf et al.
# Submitted via: ExactAudioCopy v0.95a3
#
DISCID=ad0ee60c
DTITLE=Broadway Phil and The Shouters - Rhythm and Dues
DYEAR=2002
DGENRE=
TTITLE0=Blue Side of Town
TTITLE1=Shame on Me
TTITLE2=Too Early in the Morning for the Blues
TTITLE3=From Here on Out
TTITLE4=Mary Anne
TTITLE5=Superman
TTITLE6=Rock Steady on the Mainline
TTITLE7=Fire at the End of the Day
TTITLE8=Boys in the Band
TTITLE9=Edna
TTITLE10=More Than You Cared to Know
TTITLE11=That All You Got
EXTD=Booking Information: Philip Newton, PO Box 386, Murphy, OR 97533\n
EXTD=www.theshouters.org\n
EXTT0=
EXTT1=
EXTT2=
EXTT3=
EXTT4=
EXTT5=
EXTT6=
EXTT7=
EXTT8=
EXTT9=
EXTT10=
EXTT11=
PLAYORDER=
